<svg width="40" height="32" viewBox="0 0 663 767" fill="none" xmlns="http://www.w3.org/2000/svg">
<path d="M638.419 255.619C382.245 337.407 324.48 614.541 327.619 742.885H575.39C694.204 543.691 666.915 335.044 638.419 255.619Z" fill="#C2D83B"/>
<path d="M295.18 88.2541C218.762 -44.1534 122.251 1.24506 83.5477 40.4952C40.7272 96.4884 77.7834 145.071 101.664 162.363C118.133 173.891 149.096 206.169 141.191 243.059C98.3701 347.14 159.032 430.252 194.716 458.798C202.127 460.993 215.797 473.455 211.186 505.733C210.362 607.838 253.183 638.305 268.005 666.302C279.863 688.699 268.554 726.687 261.417 742.881H481.284C467.834 725.589 446.863 682.441 470.579 648.186C534.48 573.748 459.325 484.873 413.759 449.74C403.054 440.957 388.067 415.815 413.759 385.512C491.495 286.042 396.741 198.045 339.647 166.48C334.432 164.284 322.519 155.446 316.59 137.66C310.661 119.874 299.846 97.3119 295.18 88.2541Z" fill="#98CC6C"/>
<path d="M349.051 660.359C344.838 690.864 333.253 729.263 327.987 744.649H199.629C186.464 735.277 153.025 722.156 124.588 744.649C96.1521 767.142 81.144 768.292 77.1946 766.056C71.4897 762.711 62.5815 752.543 72.5868 738.628C105.762 695.814 177.248 717.221 208.844 733.277C195.152 720.432 168.471 708.302 156.842 703.842C139.947 697.598 98.3901 693.941 67.3209 729.263C36.2516 764.584 23.2183 741.75 20.5853 725.918C21.0241 700.72 34.9351 650.325 87.0683 650.325C139.201 650.325 201.384 692.247 225.958 713.208C214.11 696.706 178.565 659.824 131.171 644.304C83.777 628.784 47.7929 653.001 35.725 667.049C4.12915 691.667 -1.13684 672.847 0.179657 660.359C8.73688 633.378 40.0694 583.294 96.942 598.814C153.815 614.334 195.24 648.541 208.844 663.704C198.839 643.903 154.648 612.194 133.804 598.814C120.639 592.125 83.9087 582.759 42.3075 598.814C0.706268 614.87 -0.917419 585.435 3.47089 568.711C11.1505 554.44 32.3021 527.101 55.4724 531.918C127.616 542.621 199.19 615.316 225.958 650.325C224.422 645.642 214.11 627.714 185.147 593.463C152.498 564.563 154.868 511.403 160.134 488.435C169.349 460.338 201.472 442.945 229.908 448.297C258.344 453.649 250.972 470.596 243.731 478.401C237.587 478.401 224.51 486.428 221.351 518.538C218.191 559.212 248.119 627.357 263.478 656.345C264.795 654.339 262.689 640.023 243.731 598.814C213.715 535.129 244.389 492.003 263.478 478.401C276.424 468.812 305.87 453.247 320.088 467.697C328.513 484.823 302.973 502.037 289.15 508.504C281.909 511.849 267.428 525.094 267.428 551.318C267.428 577.541 285.859 628.249 295.074 650.325C291.344 631.371 284.016 587.71 284.542 564.697C285.069 541.685 313.725 515.863 327.987 505.828C343.126 494.233 377.092 476.126 391.837 496.463C406.581 516.799 390.081 528.573 379.988 531.918C372.967 532.81 354.448 540.614 336.544 564.697C318.64 588.78 320.746 640.736 324.037 663.704C325.354 665.042 327.987 659.423 327.987 626.242C327.987 593.061 362.654 562.467 379.988 551.318C400.613 538.385 444.233 520.278 453.712 551.318C463.191 582.358 428.26 595.916 409.609 598.814C393.153 599.26 358.003 612.194 349.051 660.359Z" fill="#FF614C"/>
</svg>
